<svg width="32" height="32" viewBox="0 0 32 32" fill="none" xmlns="http://www.w3.org/2000/svg">
<circle cx="16" cy="16" r="15.5" stroke="#006AE0"/>
<path d="M12.1669 19.2632H19.7879C20.4565 19.2632 20.7907 19.2632 21.0632 19.1457C21.3034 19.0422 21.5089 18.8754 21.6567 18.6642C21.8242 18.4246 21.884 18.1048 22.0036 17.4653L22.9542 12.3821C22.9957 12.1605 23.0164 12.0497 22.9844 11.9631C22.9563 11.8872 22.9015 11.8234 22.8297 11.7829C22.7479 11.7368 22.632 11.7368 22.4003 11.7368H11.1113M9 9H9.92641C10.0972 9 10.1826 9 10.2517 9.03033C10.3125 9.05706 10.3643 9.10009 10.401 9.15438C10.4426 9.21597 10.4559 9.29798 10.4825 9.462L12.4437 21.538C12.4703 21.702 12.4836 21.784 12.5252 21.8456C12.5619 21.8999 12.6137 21.9429 12.6745 21.9697C12.7436 22 12.829 22 12.9998 22H20.9637" stroke="#006AE0" stroke-linecap="round" stroke-linejoin="round"/>
</svg>
