<svg width="32" height="32" viewBox="0 0 32 32" fill="none" xmlns="http://www.w3.org/2000/svg">
<circle cx="16" cy="16" r="15.5" stroke="#006AE0"/>
<path d="M23 23V21.3333C23 20.4493 22.6576 19.6014 22.0481 18.9763C21.4386 18.3512 20.612 18 19.75 18H13.25C12.388 18 11.5614 18.3512 10.9519 18.9763C10.3424 19.6014 10 20.4493 10 21.3333V23M19.75 11.3333C19.75 13.1743 18.2949 14.6667 16.5 14.6667C14.7051 14.6667 13.25 13.1743 13.25 11.3333C13.25 9.49238 14.7051 8 16.5 8C18.2949 8 19.75 9.49238 19.75 11.3333Z" stroke="#006AE0" stroke-linecap="round" stroke-linejoin="round"/>
</svg>
